<svg xmlns="http://www.w3.org/2000/svg" width="21" height="26" viewBox="0 0 21 26">
    <g fill="none" fill-rule="nonzero">
        <path fill="#4B4B4B" d="M9.432 0l6.34 9.954v11.22c0 .807-.589 1.46-1.315 1.46H1.314c-.726 0-1.314-.653-1.314-1.46V1.46C0 .654.588 0 1.314 0h8.118zm-.34.73H1.314c-.337 0-.614.282-.652.645l-.005.085v19.715c0 .374.254.683.58.725l.077.005h13.143c.337 0 .615-.282.653-.645l.004-.085V10.186L9.092.73z"/>
        <path fill="#ED5F6C" d="M9.092.73H1.314c-.337 0-.614.282-.652.645l-.005.085v19.715c0 .374.254.683.58.725l.077.005h13.143c.337 0 .615-.282.653-.645l.004-.085V10.186L9.092.73z"/>
        <path fill="#D74350" d="M9.092.73l6.022 9.456v10.989l-.004.085c-.038.363-.316.645-.653.645h-1.314c.337 0 .615-.282.653-.645l.004-.085V10.186L7.777.73h1.315z"/>
        <path fill="#4B4B4B" d="M9.353 0l6.418 10.082h-5.104c-.726 0-1.314-.654-1.314-1.46V0zM14.5 9.352L10.01 2.297v6.325c0 .374.253.683.58.725l.077.005H14.5z"/>
        <path fill="#ECECEC" d="M14.501 9.352L10.01 2.297v6.325c0 .374.253.683.58.725l.077.005H14.5z"/>
        <path fill="#4B4B4B" d="M11.5 18.254H3.614c-.181 0-.328.224-.328.5 0 .245.116.45.27.492l.058.008H11.5c.181 0 .329-.224.329-.5 0-.245-.117-.45-.27-.492l-.059-.008zM11.5 15.333H3.614c-.181 0-.328.224-.328.5 0 .246.116.45.27.492l.058.008H11.5c.181 0 .329-.224.329-.5 0-.245-.117-.45-.27-.492l-.059-.008zM11.5 12.413H3.614c-.181 0-.328.224-.328.5 0 .245.116.45.27.492l.058.008H11.5c.181 0 .329-.224.329-.5 0-.246-.117-.45-.27-.492l-.059-.008z"/>
        <g>
            <path fill="#4B4B4B" d="M14.032 2.92l6.34 9.955v11.22c0 .807-.589 1.46-1.315 1.46H5.914c-.726 0-1.314-.653-1.314-1.46V4.381c0-.807.588-1.46 1.314-1.46h8.118zm-.34.73H5.914c-.337 0-.614.283-.652.646l-.005.085v19.714c0 .375.254.683.58.725l.077.005h13.143c.337 0 .615-.281.653-.645l.004-.085V13.107l-6.022-9.456z"/>
            <path fill="#FFCF47" d="M13.692 3.65H5.914c-.337 0-.614.283-.652.646l-.005.085v19.714c0 .375.254.683.58.725l.077.005h13.143c.337 0 .615-.281.653-.645l.004-.085V13.107l-6.022-9.456z"/>
            <path fill="#FFB902" d="M13.692 3.65l6.022 9.457v10.988l-.004.085c-.038.364-.316.645-.653.645h-1.314c.337 0 .615-.281.653-.645l.004-.085V13.107l-6.023-9.456h1.315z"/>
            <path fill="#4B4B4B" d="M13.953 2.92l6.418 10.083h-5.104c-.726 0-1.314-.654-1.314-1.46V2.92zm5.148 9.353L14.61 5.218v6.324c0 .375.253.684.58.726l.077.005H19.1z"/>
            <path fill="#ECECEC" d="M19.101 12.273L14.61 5.218v6.324c0 .375.253.684.58.726l.077.005H19.1z"/>
            <path fill="#4B4B4B" d="M16.1 21.175H8.214c-.181 0-.328.223-.328.5 0 .245.116.45.27.492l.058.008H16.1c.181 0 .329-.224.329-.5 0-.246-.117-.45-.27-.492l-.059-.008zM16.1 18.254H8.214c-.181 0-.328.224-.328.5 0 .245.116.45.27.492l.058.008H16.1c.181 0 .329-.224.329-.5 0-.245-.117-.45-.27-.492l-.059-.008zM16.1 15.333H8.214c-.181 0-.328.224-.328.5 0 .246.116.45.27.492l.058.008H16.1c.181 0 .329-.224.329-.5 0-.245-.117-.45-.27-.492l-.059-.008z"/>
        </g>
    </g>
</svg>
